<mxfile host="app.diagrams.net" modified="2023-05-21T15:44:09.257Z" agent="Mozilla/5.0 (Windows NT 10.0; Win64; x64) AppleWebKit/537.36 (KHTML, like Gecko) Chrome/112.0.0.0 Safari/537.36 OPR/98.0.0.0" etag="xjvlFs208sche9uWU4Kh" version="21.3.2" type="device">
  <diagram name="Page-1" id="hYrl3ZHirICyW_UpTZGf">
    <mxGraphModel dx="1180" dy="716" grid="1" gridSize="10" guides="1" tooltips="1" connect="1" arrows="1" fold="1" page="1" pageScale="1" pageWidth="827" pageHeight="1169" math="0" shadow="0">
      <root>
        <mxCell id="0" />
        <mxCell id="1" parent="0" />
        <mxCell id="RDEhtJRQ4FMow5y40eVk-1" value="&lt;sup&gt;FuncionÃ¡rio&lt;/sup&gt;" style="shape=umlActor;verticalLabelPosition=bottom;verticalAlign=top;html=1;" parent="1" vertex="1">
          <mxGeometry x="150" y="20" width="30" height="60" as="geometry" />
        </mxCell>
        <mxCell id="RDEhtJRQ4FMow5y40eVk-3" value="" style="endArrow=none;html=1;rounded=0;" parent="1" edge="1">
          <mxGeometry width="50" height="50" relative="1" as="geometry">
            <mxPoint x="160" y="706" as="sourcePoint" />
            <mxPoint x="160" y="106" as="targetPoint" />
          </mxGeometry>
        </mxCell>
        <mxCell id="RDEhtJRQ4FMow5y40eVk-4" value="" style="endArrow=classic;html=1;rounded=0;" parent="1" edge="1">
          <mxGeometry width="50" height="50" relative="1" as="geometry">
            <mxPoint x="160" y="146" as="sourcePoint" />
            <mxPoint x="580" y="146" as="targetPoint" />
          </mxGeometry>
        </mxCell>
        <mxCell id="RDEhtJRQ4FMow5y40eVk-5" value="consultarJogos(filtroCategorias, filtroEstado)" style="text;html=1;align=center;verticalAlign=middle;resizable=0;points=[];autosize=1;strokeColor=none;fillColor=none;" parent="1" vertex="1">
          <mxGeometry x="245" y="154" width="260" height="30" as="geometry" />
        </mxCell>
        <mxCell id="RDEhtJRQ4FMow5y40eVk-6" value="" style="endArrow=none;html=1;rounded=0;" parent="1" edge="1">
          <mxGeometry width="50" height="50" relative="1" as="geometry">
            <mxPoint x="580" y="706" as="sourcePoint" />
            <mxPoint x="580" y="106" as="targetPoint" />
          </mxGeometry>
        </mxCell>
        <mxCell id="RDEhtJRQ4FMow5y40eVk-7" value="" style="endArrow=none;dashed=1;html=1;dashPattern=1 3;strokeWidth=2;rounded=0;startArrow=classic;startFill=1;" parent="1" edge="1">
          <mxGeometry width="50" height="50" relative="1" as="geometry">
            <mxPoint x="160" y="196" as="sourcePoint" />
            <mxPoint x="580" y="196" as="targetPoint" />
          </mxGeometry>
        </mxCell>
        <mxCell id="RDEhtJRQ4FMow5y40eVk-8" value="jogos" style="text;html=1;align=center;verticalAlign=middle;resizable=0;points=[];autosize=1;strokeColor=none;fillColor=none;" parent="1" vertex="1">
          <mxGeometry x="350" y="206" width="50" height="30" as="geometry" />
        </mxCell>
        <mxCell id="rpNa78o9wenumL-gHM61-1" value="Sistema" style="rounded=0;whiteSpace=wrap;html=1;" vertex="1" parent="1">
          <mxGeometry x="540" y="40" width="80" height="40" as="geometry" />
        </mxCell>
      </root>
    </mxGraphModel>
  </diagram>
</mxfile>
